<svg aria-hidden="true" style="position: absolute; width: 0; height: 0; overflow: hidden;" version="1.1" xmlns="http://www.w3.org/2000/svg" xmlns:xlink="http://www.w3.org/1999/xlink">
<defs>
<symbol id="icon-menu-dots" viewBox="0 0 32 32">
<path d="M6.919 5.375c-0.944 0.237-1.569 1.019-1.569 1.969 0 0.55 0.206 1.031 0.619 1.431 0.406 0.394 0.862 0.556 1.469 0.525 0.537-0.031 0.894-0.188 1.269-0.544 0.563-0.525 0.756-1.412 0.481-2.144-0.325-0.875-1.394-1.456-2.269-1.237z"></path>
<path d="M15.525 5.4c-0.581 0.144-1.094 0.575-1.35 1.131-0.219 0.475-0.206 1.194 0.031 1.669 0.188 0.387 0.519 0.719 0.931 0.938 0.225 0.119 0.363 0.144 0.862 0.144s0.637-0.025 0.863-0.144c0.413-0.219 0.744-0.55 0.931-0.938 0.238-0.475 0.25-1.194 0.031-1.669-0.269-0.581-0.813-1.019-1.438-1.15-0.394-0.081-0.45-0.081-0.863 0.019z"></path>
<path d="M24.181 5.4c-0.906 0.244-1.494 1-1.494 1.931 0 0.513 0.156 0.931 0.494 1.306 0.387 0.431 0.794 0.625 1.381 0.662 0.375 0.019 0.538 0 0.825-0.113 1.031-0.387 1.556-1.644 1.106-2.625-0.3-0.644-0.7-0.987-1.35-1.156-0.419-0.112-0.575-0.112-0.962-0.006z"></path>
<path d="M6.781 14.081c-0.412 0.137-0.619 0.269-0.888 0.563-0.325 0.35-0.425 0.544-0.519 0.994-0.175 0.875 0.313 1.8 1.156 2.188 0.475 0.219 1.194 0.206 1.669-0.031 0.387-0.188 0.719-0.519 0.938-0.931 0.119-0.225 0.144-0.363 0.144-0.863 0-0.662-0.094-0.919-0.506-1.375-0.456-0.5-1.362-0.75-1.994-0.544z"></path>
<path d="M15.531 14.056c-0.575 0.15-1.081 0.563-1.344 1.1-0.213 0.431-0.219 1.238-0.012 1.656 0.213 0.444 0.469 0.712 0.9 0.944 0.363 0.194 0.438 0.212 0.925 0.206 0.45 0 0.581-0.025 0.85-0.163 0.469-0.25 0.669-0.438 0.906-0.875 0.194-0.363 0.212-0.438 0.212-0.925s-0.019-0.563-0.212-0.925c-0.356-0.65-0.9-1-1.625-1.044-0.225-0.012-0.494-0.006-0.6 0.025z"></path>
<path d="M24.012 14.113c-0.413 0.15-0.738 0.406-0.994 0.787-0.269 0.394-0.35 0.725-0.319 1.256 0.050 0.725 0.444 1.319 1.1 1.637 0.3 0.15 0.431 0.175 0.856 0.175 0.656-0.006 1.044-0.169 1.462-0.631 0.712-0.781 0.712-1.894 0-2.675-0.531-0.588-1.381-0.806-2.106-0.55z"></path>
<path d="M6.606 22.813c-0.469 0.181-0.825 0.512-1.056 0.981-0.169 0.35-0.2 0.481-0.2 0.856 0.006 1.775 2.138 2.675 3.381 1.431 0.412-0.413 0.55-0.769 0.55-1.425 0-0.488-0.025-0.606-0.169-0.881-0.225-0.425-0.706-0.85-1.113-0.981-0.425-0.137-1.013-0.131-1.394 0.019z"></path>
<path d="M15.4 22.75c-0.313 0.1-0.781 0.444-1.006 0.738-0.963 1.275-0.006 3.163 1.606 3.163 0.756 0 1.512-0.488 1.819-1.163 0.219-0.5 0.212-1.206-0.025-1.688-0.194-0.387-0.525-0.725-0.931-0.931-0.3-0.156-1.125-0.225-1.463-0.119z"></path>
<path d="M23.938 22.8c-0.4 0.15-1 0.762-1.144 1.169-0.425 1.219 0.369 2.506 1.65 2.688 0.563 0.081 1.331-0.219 1.712-0.669 0.706-0.831 0.65-2.012-0.125-2.762-0.512-0.5-1.4-0.681-2.094-0.425z"></path>
</symbol>

<symbol id="icon-search" viewBox="0 0 32 32">
<path d="M27.613 25.72l-4.533-4.52c1.405-1.777 2.253-4.049 2.253-6.52 0-0.005 0-0.009 0-0.014v0.001c0-5.891-4.776-10.667-10.667-10.667s-10.667 4.776-10.667 10.667c0 5.891 4.776 10.667 10.667 10.667v0c0.004 0 0.008 0 0.013 0 2.471 0 4.744-0.849 6.542-2.27l-0.022 0.017 4.52 4.533c0.242 0.244 0.577 0.394 0.947 0.394s0.705-0.151 0.947-0.394l0-0c0.244-0.242 0.394-0.577 0.394-0.947s-0.151-0.705-0.394-0.947l-0-0zM6.667 14.667c0-4.418 3.582-8 8-8s8 3.582 8 8c0 4.418-3.582 8-8 8v0c-4.418 0-8-3.582-8-8v0z"></path>
</symbol>

<symbol id="icon-photo-search" viewBox="0 0 32 32">
<path fill="#fbc02d" style="fill: var(--color1, #fbc02d)" d="M20.117 9.301c1.408 0 2.581 1.152 2.581 2.581v2.069h2.581v-2.069c0-2.837-2.304-5.163-5.163-5.163h-2.069v2.581h2.069z"></path>
<path fill="#e53935" style="fill: var(--color2, #e53935)" d="M9.301 11.883c0-1.408 1.152-2.581 2.581-2.581h2.069v-2.581h-2.069c-2.837 0-5.163 2.304-5.163 5.163v2.069h2.581v-2.069z"></path>
<path fill="#1a73e8" style="fill: var(--color3, #1a73e8)" d="M11.883 22.699c-1.408 0-2.581-1.152-2.581-2.581v-2.069h-2.581v2.069c0 2.837 2.304 5.163 5.163 5.163h2.069v-2.581h-2.069z"></path>
<path fill="#1e88e5" style="fill: var(--color4, #1e88e5)" d="M19.605 16c0 1.991-1.614 3.605-3.605 3.605s-3.605-1.614-3.605-3.605c0-1.991 1.614-3.605 3.605-3.605s3.605 1.614 3.605 3.605z"></path>
<path fill="#4caf50" style="fill: var(--color5, #4caf50)" d="M24.256 22.187c0 1.143-0.926 2.069-2.069 2.069s-2.069-0.926-2.069-2.069c0-1.143 0.926-2.069 2.069-2.069s2.069 0.926 2.069 2.069z"></path>
</symbol>

<symbol id="icon-microphone" viewBox="0 0 32 32">
<path fill="#1e88e5" style="fill: var(--color1, #1e88e5)" d="M16.001 19.003c1.685 0 3.029-1.365 3.029-3.029v-7.083c0-1.685-1.365-3.029-3.029-3.029-1.685 0-3.029 1.365-3.029 3.029v7.083c0 1.664 1.365 3.029 3.029 3.029z"></path>
<path fill="#4caf50" style="fill: var(--color2, #4caf50)" d="M14.993 22.965v0 3.179h2.027v-3.157c-0.32 0.043-0.661 0.043-1.003 0.043-0.363 0.021-0.683 0-1.024-0.064z"></path>
<path fill="#fbc02d" style="fill: var(--color3, #fbc02d)" d="M12.412 19.586c-0.896-0.917-1.472-2.027-1.472-3.541h-2.027c0 2.027 0.789 3.691 2.069 4.971l0.021-0.021c0 0 0 0-0.021-0.021l1.429-1.387z"></path>
<path fill="#e53935" style="fill: var(--color4, #e53935)" d="M21.058 16.041c0 2.539-2.24 5.035-5.056 5.035-1.408 0-2.667-0.576-3.584-1.493l-1.429 1.429c0 0 0 0 0.021 0.021 1.045 1.045 2.432 1.749 3.989 1.984 0.341 0.043 0.683 0.085 1.024 0.085s0.683 0 1.003-0.043c3.435-0.491 6.059-3.435 6.059-6.976h-2.027z"></path>
</symbol>

<symbol id="icon-keyboard" viewBox="0 0 32 32">
<path d="M16.405 12.637v-3.507c0-0.379 0.307-0.686 0.686-0.686h7.798c1.371 0 2.488-1.117 2.488-2.488s-1.117-2.488-2.488-2.488h-16.431c-0.353 0-0.66 0.281-0.66 0.66s0.281 0.66 0.66 0.66h16.431c0.66 0 1.169 0.535 1.169 1.169 0 0.66-0.535 1.169-1.169 1.169h-7.798c-1.091 0-1.979 0.888-1.979 1.979v3.481h-15.112v15.948h32v-15.896h-15.595zM15.164 14.465h1.019c0.353 0 0.66 0.281 0.66 0.66s-0.281 0.66-0.66 0.66h-1.019c-0.353 0-0.66-0.281-0.66-0.66s0.3-0.66 0.66-0.66zM13.283 21.27h-1.019c-0.353 0-0.66-0.281-0.66-0.66 0-0.353 0.281-0.66 0.66-0.66h1.019c0.353 0 0.66 0.281 0.66 0.66 0 0.353-0.307 0.66-0.66 0.66zM13.943 23.047c0 0.353-0.281 0.66-0.66 0.66h-1.019c-0.353 0-0.66-0.281-0.66-0.66 0-0.353 0.281-0.66 0.66-0.66h1.019c0.353 0 0.66 0.307 0.66 0.66zM13.283 18.808h-1.019c-0.353 0-0.66-0.281-0.66-0.66s0.281-0.66 0.66-0.66h1.019c0.353 0 0.66 0.281 0.66 0.66s-0.307 0.66-0.66 0.66zM12.167 14.465h1.019c0.353 0 0.66 0.281 0.66 0.66s-0.281 0.66-0.66 0.66h-1.019c-0.353 0-0.66-0.281-0.66-0.66s0.3-0.66 0.66-0.66zM9.169 14.465h1.019c0.353 0 0.66 0.281 0.66 0.66s-0.281 0.66-0.66 0.66h-1.019c-0.353 0-0.66-0.281-0.66-0.66s0.3-0.66 0.66-0.66zM9.065 17.509h1.019c0.353 0 0.66 0.281 0.66 0.66s-0.281 0.66-0.66 0.66h-1.019c-0.353 0-0.66-0.281-0.66-0.66s0.307-0.66 0.66-0.66zM9.065 19.951h1.019c0.353 0 0.66 0.281 0.66 0.66 0 0.353-0.281 0.66-0.66 0.66h-1.019c-0.353 0-0.66-0.281-0.66-0.66 0-0.359 0.307-0.66 0.66-0.66zM9.065 22.387h1.019c0.353 0 0.66 0.281 0.66 0.66 0 0.353-0.281 0.66-0.66 0.66h-1.019c-0.353 0-0.66-0.281-0.66-0.66 0-0.353 0.307-0.66 0.66-0.66zM6.171 14.465h1.019c0.353 0 0.66 0.281 0.66 0.66s-0.281 0.66-0.66 0.66h-1.019c-0.353 0-0.66-0.281-0.66-0.66s0.307-0.66 0.66-0.66zM5.838 17.509h1.019c0.353 0 0.66 0.281 0.66 0.66s-0.281 0.66-0.66 0.66h-1.019c-0.353 0-0.66-0.281-0.66-0.66s0.307-0.66 0.66-0.66zM5.838 19.951h1.019c0.353 0 0.66 0.281 0.66 0.66 0 0.353-0.281 0.66-0.66 0.66h-1.019c-0.353 0-0.66-0.281-0.66-0.66 0.026-0.359 0.307-0.66 0.66-0.66zM5.838 22.387h1.019c0.353 0 0.66 0.281 0.66 0.66 0 0.353-0.281 0.66-0.66 0.66h-1.019c-0.353 0-0.66-0.281-0.66-0.66 0.026-0.353 0.307-0.66 0.66-0.66zM3.657 26.149h-1.019c-0.353 0-0.66-0.281-0.66-0.66 0-0.353 0.281-0.66 0.66-0.66h1.019c0.353 0 0.66 0.281 0.66 0.66-0.026 0.353-0.307 0.66-0.66 0.66zM3.657 23.706h-1.019c-0.353 0-0.66-0.281-0.66-0.66 0-0.353 0.281-0.66 0.66-0.66h1.019c0.353 0 0.66 0.281 0.66 0.66-0.026 0.359-0.307 0.66-0.66 0.66zM3.657 21.27h-1.019c-0.353 0-0.66-0.281-0.66-0.66 0-0.353 0.281-0.66 0.66-0.66h1.019c0.353 0 0.66 0.281 0.66 0.66-0.026 0.353-0.307 0.66-0.66 0.66zM3.657 18.808h-1.019c-0.353 0-0.66-0.281-0.66-0.66s0.281-0.66 0.66-0.66h1.019c0.353 0 0.66 0.281 0.66 0.66s-0.307 0.66-0.66 0.66zM3.657 15.758h-1.019c-0.353 0-0.66-0.281-0.66-0.66s0.281-0.66 0.66-0.66h1.019c0.353 0 0.66 0.281 0.66 0.66s-0.307 0.66-0.66 0.66zM16.509 26.149h-10.671c-0.353 0-0.66-0.281-0.66-0.66 0-0.353 0.281-0.66 0.66-0.66h10.664c0.353 0 0.66 0.281 0.66 0.66 0.007 0.353-0.3 0.66-0.653 0.66zM16.509 23.706h-1.019c-0.353 0-0.66-0.281-0.66-0.66 0-0.353 0.281-0.66 0.66-0.66h1.019c0.353 0 0.66 0.281 0.66 0.66 0 0.359-0.307 0.66-0.66 0.66zM16.509 21.27h-1.019c-0.353 0-0.66-0.281-0.66-0.66 0-0.353 0.281-0.66 0.66-0.66h1.019c0.353 0 0.66 0.281 0.66 0.66 0 0.353-0.307 0.66-0.66 0.66zM16.509 18.808h-1.019c-0.353 0-0.66-0.281-0.66-0.66s0.281-0.66 0.66-0.66h1.019c0.353 0 0.66 0.281 0.66 0.66s-0.307 0.66-0.66 0.66zM19.735 26.149h-1.019c-0.353 0-0.66-0.281-0.66-0.66 0-0.353 0.281-0.66 0.66-0.66h1.019c0.353 0 0.66 0.281 0.66 0.66-0.026 0.353-0.307 0.66-0.66 0.66zM19.735 23.706h-1.019c-0.353 0-0.66-0.281-0.66-0.66 0-0.353 0.281-0.66 0.66-0.66h1.019c0.353 0 0.66 0.281 0.66 0.66-0.026 0.359-0.307 0.66-0.66 0.66zM19.735 21.27h-1.019c-0.353 0-0.66-0.281-0.66-0.66 0-0.353 0.281-0.66 0.66-0.66h1.019c0.353 0 0.66 0.281 0.66 0.66-0.026 0.353-0.307 0.66-0.66 0.66zM19.735 18.808h-1.019c-0.353 0-0.66-0.281-0.66-0.66s0.281-0.66 0.66-0.66h1.019c0.353 0 0.66 0.281 0.66 0.66s-0.307 0.66-0.66 0.66zM20.395 15.758h-1.019c-0.353 0-0.66-0.281-0.66-0.66s0.281-0.66 0.66-0.66h1.019c0.353 0 0.66 0.281 0.66 0.66s-0.307 0.66-0.66 0.66zM22.936 26.149h-1.019c-0.353 0-0.66-0.281-0.66-0.66 0-0.353 0.281-0.66 0.66-0.66h1.019c0.353 0 0.66 0.281 0.66 0.66 0 0.353-0.307 0.66-0.66 0.66zM22.936 23.706h-1.019c-0.353 0-0.66-0.281-0.66-0.66 0-0.353 0.281-0.66 0.66-0.66h1.019c0.353 0 0.66 0.281 0.66 0.66 0 0.359-0.307 0.66-0.66 0.66zM22.936 21.27h-1.019c-0.353 0-0.66-0.281-0.66-0.66 0-0.353 0.281-0.66 0.66-0.66h1.019c0.353 0 0.66 0.281 0.66 0.66 0 0.353-0.307 0.66-0.66 0.66zM22.936 18.808h-1.019c-0.353 0-0.66-0.281-0.66-0.66s0.281-0.66 0.66-0.66h1.019c0.353 0 0.66 0.281 0.66 0.66s-0.307 0.66-0.66 0.66zM23.367 15.758h-1.019c-0.353 0-0.66-0.281-0.66-0.66s0.281-0.66 0.66-0.66h1.019c0.353 0 0.66 0.281 0.66 0.66s-0.281 0.66-0.66 0.66zM26.162 26.149h-1.019c-0.353 0-0.66-0.281-0.66-0.66 0-0.353 0.281-0.66 0.66-0.66h1.019c0.353 0 0.66 0.281 0.66 0.66-0.026 0.353-0.307 0.66-0.66 0.66zM26.162 23.706h-1.019c-0.353 0-0.66-0.281-0.66-0.66 0-0.353 0.281-0.66 0.66-0.66h1.019c0.353 0 0.66 0.281 0.66 0.66-0.026 0.359-0.307 0.66-0.66 0.66zM26.162 21.27h-1.019c-0.353 0-0.66-0.281-0.66-0.66 0-0.353 0.281-0.66 0.66-0.66h1.019c0.353 0 0.66 0.281 0.66 0.66-0.026 0.353-0.307 0.66-0.66 0.66zM26.162 18.808h-1.019c-0.353 0-0.66-0.281-0.66-0.66s0.281-0.66 0.66-0.66h1.019c0.353 0 0.66 0.281 0.66 0.66s-0.307 0.66-0.66 0.66zM26.364 15.758h-1.019c-0.353 0-0.66-0.281-0.66-0.66s0.281-0.66 0.66-0.66h1.019c0.353 0 0.66 0.281 0.66 0.66s-0.281 0.66-0.66 0.66zM29.362 26.149h-1.019c-0.353 0-0.66-0.281-0.66-0.66 0-0.353 0.281-0.66 0.66-0.66h1.019c0.353 0 0.66 0.281 0.66 0.66 0 0.353-0.307 0.66-0.66 0.66zM29.362 23.706h-1.019c-0.353 0-0.66-0.281-0.66-0.66 0-0.353 0.281-0.66 0.66-0.66h1.019c0.353 0 0.66 0.281 0.66 0.66 0 0.359-0.307 0.66-0.66 0.66zM29.362 21.27h-1.019c-0.353 0-0.66-0.281-0.66-0.66 0-0.353 0.281-0.66 0.66-0.66h1.019c0.353 0 0.66 0.281 0.66 0.66 0 0.353-0.307 0.66-0.66 0.66zM29.362 18.808h-1.019c-0.353 0-0.66-0.281-0.66-0.66s0.281-0.66 0.66-0.66h1.019c0.353 0 0.66 0.281 0.66 0.66s-0.307 0.66-0.66 0.66zM29.362 15.758h-1.019c-0.353 0-0.66-0.281-0.66-0.66s0.281-0.66 0.66-0.66h1.019c0.353 0 0.66 0.281 0.66 0.66s-0.307 0.66-0.66 0.66z"></path>
</symbol>

</defs>
</svg>

